<svg id="图层_1" data-name="图层 1" xmlns="http://www.w3.org/2000/svg" viewBox="0 0 74.18 89.24"><defs><style>.cls-1{fill:#fff;}</style></defs><title>eyes</title><path class="cls-1" d="M37.09,7.64,55,25,56.65,36l-1.18.37-.07,0-.07,0a58.81,58.81,0,0,1-8.95,2A90,90,0,0,1,37.1,39a83.5,83.5,0,0,1-9.29-.65,58.17,58.17,0,0,1-9-2l-.06,0-.07,0-1.18-.37L19.22,25,37.09,7.64m0-7.64-23,22.38L11.83,36.94c-1.1-.36-2.2-.75-3.27-1.19a30.66,30.66,0,0,1-8.3-4.89L0,31.14a25.37,25.37,0,0,0,7.77,6.48,48.07,48.07,0,0,0,9.37,3.94A63.12,63.12,0,0,0,27,43.73a91.74,91.74,0,0,0,10.07.7,91.74,91.74,0,0,0,10.07-.7A62,62,0,0,0,57,41.57a48.07,48.07,0,0,0,9.37-3.94,25.4,25.4,0,0,0,7.77-6.49l-.26-.28a30.82,30.82,0,0,1-8.3,4.89c-1.08.44-2.17.83-3.28,1.19L60.09,22.38,37.09,0Z"/><polygon class="cls-1" points="37.09 89.24 8.27 68.79 10.92 45.15 15.88 45.7 13.55 66.42 37.09 83.12 60.62 66.42 58.3 45.7 63.25 45.14 65.91 68.79 37.09 89.24"/><path class="cls-1" d="M37.09,63.5A14.69,14.69,0,0,0,51.78,48.81a15.07,15.07,0,0,0-.18-2.14c-1.24.23-2.48.43-3.73.59a10.61,10.61,0,0,1,.21,2,11,11,0,1,1-22,0,10.51,10.51,0,0,1,.21-2c-1.25-.17-2.5-.37-3.74-.6a15.07,15.07,0,0,0-.17,2.14A14.69,14.69,0,0,0,37.09,63.5Z"/><path d="M26.31,47.27a10.51,10.51,0,0,0-.21,2,11,11,0,1,0,22,0,10.61,10.61,0,0,0-.21-2A88.34,88.34,0,0,1,37.09,48,88.33,88.33,0,0,1,26.31,47.27ZM43.61,51a.9.9,0,1,1-.89.89A.89.89,0,0,1,43.61,51Zm-3.69,2.11a2.35,2.35,0,1,1-2.34,2.35A2.35,2.35,0,0,1,39.92,53.13Z"/><path class="cls-1" d="M39.92,57.83a2.35,2.35,0,1,0-2.34-2.35A2.35,2.35,0,0,0,39.92,57.83Z"/><circle class="cls-1" cx="43.61" cy="51.91" r="0.9"/></svg>